<mxfile host="app.diagrams.net" modified="2023-12-24T19:41:50.573Z" agent="Mozilla/5.0 (Windows NT 10.0; Win64; x64) AppleWebKit/537.36 (KHTML, like Gecko) Chrome/119.0.0.0 Safari/537.36 OPR/105.0.0.0 (Edition Yx GX)" etag="qXd9NLmZuGjOASOWPGHk" version="22.1.11" type="google">
  <diagram name="Страница — 1" id="njEJ24OupL5TV8u2Nq0Z">
    <mxGraphModel grid="1" page="1" gridSize="10" guides="1" tooltips="1" connect="1" arrows="1" fold="1" pageScale="1" pageWidth="827" pageHeight="1169" math="0" shadow="0">
      <root>
        <mxCell id="0" />
        <mxCell id="1" parent="0" />
        <mxCell id="BwLDqqsVIszzPK-v5Zr2-2" value="Приложение для работников кинотеатра" style="shape=umlFrame;whiteSpace=wrap;html=1;pointerEvents=0;recursiveResize=0;container=1;collapsible=0;width=160;" vertex="1" parent="1">
          <mxGeometry x="-10" y="250" width="680" height="790" as="geometry" />
        </mxCell>
        <mxCell id="BwLDqqsVIszzPK-v5Zr2-28" style="rounded=0;orthogonalLoop=1;jettySize=auto;html=1;exitX=0.5;exitY=1;exitDx=0;exitDy=0;entryX=0;entryY=0.5;entryDx=0;entryDy=0;endArrow=none;endFill=0;dashed=1;startArrow=openThin;startFill=0;" edge="1" parent="BwLDqqsVIszzPK-v5Zr2-2" source="BwLDqqsVIszzPK-v5Zr2-6" target="BwLDqqsVIszzPK-v5Zr2-27">
          <mxGeometry relative="1" as="geometry" />
        </mxCell>
        <mxCell id="BwLDqqsVIszzPK-v5Zr2-29" value="&amp;lt;&amp;lt;Extend&amp;gt;&amp;gt;" style="edgeLabel;html=1;align=center;verticalAlign=middle;resizable=0;points=[];" connectable="0" vertex="1" parent="BwLDqqsVIszzPK-v5Zr2-28">
          <mxGeometry x="-0.111" relative="1" as="geometry">
            <mxPoint as="offset" />
          </mxGeometry>
        </mxCell>
        <mxCell id="BwLDqqsVIszzPK-v5Zr2-6" value="продать билет" style="ellipse;whiteSpace=wrap;html=1;" vertex="1" parent="BwLDqqsVIszzPK-v5Zr2-2">
          <mxGeometry x="50" y="100" width="120" height="80" as="geometry" />
        </mxCell>
        <mxCell id="BwLDqqsVIszzPK-v5Zr2-13" style="rounded=0;orthogonalLoop=1;jettySize=auto;html=1;exitX=0;exitY=0.5;exitDx=0;exitDy=0;entryX=1;entryY=0;entryDx=0;entryDy=0;dashed=1;endArrow=openThin;endFill=0;" edge="1" parent="BwLDqqsVIszzPK-v5Zr2-2" source="BwLDqqsVIszzPK-v5Zr2-10" target="BwLDqqsVIszzPK-v5Zr2-6">
          <mxGeometry relative="1" as="geometry" />
        </mxCell>
        <mxCell id="BwLDqqsVIszzPK-v5Zr2-17" value="&amp;lt;&amp;lt;Include&amp;gt;&amp;gt;" style="edgeLabel;html=1;align=center;verticalAlign=middle;resizable=0;points=[];" connectable="0" vertex="1" parent="BwLDqqsVIszzPK-v5Zr2-13">
          <mxGeometry x="-0.0052" y="-1" relative="1" as="geometry">
            <mxPoint as="offset" />
          </mxGeometry>
        </mxCell>
        <mxCell id="BwLDqqsVIszzPK-v5Zr2-10" value="Просмотреть данные о сеансах" style="ellipse;whiteSpace=wrap;html=1;" vertex="1" parent="BwLDqqsVIszzPK-v5Zr2-2">
          <mxGeometry x="220" y="10" width="120" height="80" as="geometry" />
        </mxCell>
        <mxCell id="BwLDqqsVIszzPK-v5Zr2-15" style="rounded=0;orthogonalLoop=1;jettySize=auto;html=1;exitX=0;exitY=0.5;exitDx=0;exitDy=0;entryX=1;entryY=0.5;entryDx=0;entryDy=0;dashed=1;endArrow=openThin;endFill=0;" edge="1" parent="BwLDqqsVIszzPK-v5Zr2-2" source="BwLDqqsVIszzPK-v5Zr2-11" target="BwLDqqsVIszzPK-v5Zr2-6">
          <mxGeometry relative="1" as="geometry" />
        </mxCell>
        <mxCell id="BwLDqqsVIszzPK-v5Zr2-18" value="&amp;lt;&amp;lt;Include&amp;gt;&amp;gt;" style="edgeLabel;html=1;align=center;verticalAlign=middle;resizable=0;points=[];" connectable="0" vertex="1" parent="BwLDqqsVIszzPK-v5Zr2-15">
          <mxGeometry x="0.0032" y="1" relative="1" as="geometry">
            <mxPoint as="offset" />
          </mxGeometry>
        </mxCell>
        <mxCell id="BwLDqqsVIszzPK-v5Zr2-11" value="Посмотреть данные о фильмах" style="ellipse;whiteSpace=wrap;html=1;" vertex="1" parent="BwLDqqsVIszzPK-v5Zr2-2">
          <mxGeometry x="390" y="40" width="120" height="80" as="geometry" />
        </mxCell>
        <mxCell id="BwLDqqsVIszzPK-v5Zr2-16" style="rounded=0;orthogonalLoop=1;jettySize=auto;html=1;exitX=0;exitY=0;exitDx=0;exitDy=0;entryX=1;entryY=1;entryDx=0;entryDy=0;dashed=1;endArrow=openThin;endFill=0;" edge="1" parent="BwLDqqsVIszzPK-v5Zr2-2" source="BwLDqqsVIszzPK-v5Zr2-14" target="BwLDqqsVIszzPK-v5Zr2-6">
          <mxGeometry relative="1" as="geometry" />
        </mxCell>
        <mxCell id="BwLDqqsVIszzPK-v5Zr2-19" value="&amp;lt;&amp;lt;Include&amp;gt;&amp;gt;" style="edgeLabel;html=1;align=center;verticalAlign=middle;resizable=0;points=[];" connectable="0" vertex="1" parent="BwLDqqsVIszzPK-v5Zr2-16">
          <mxGeometry x="-0.0361" y="2" relative="1" as="geometry">
            <mxPoint as="offset" />
          </mxGeometry>
        </mxCell>
        <mxCell id="BwLDqqsVIszzPK-v5Zr2-14" value="Выбрать место" style="ellipse;whiteSpace=wrap;html=1;" vertex="1" parent="BwLDqqsVIszzPK-v5Zr2-2">
          <mxGeometry x="304" y="140" width="120" height="80" as="geometry" />
        </mxCell>
        <mxCell id="BwLDqqsVIszzPK-v5Zr2-20" value="Вернуть билет" style="ellipse;whiteSpace=wrap;html=1;" vertex="1" parent="BwLDqqsVIszzPK-v5Zr2-2">
          <mxGeometry x="60" y="260" width="120" height="80" as="geometry" />
        </mxCell>
        <mxCell id="BwLDqqsVIszzPK-v5Zr2-21" value="Редактировать информацию о фильмах" style="ellipse;whiteSpace=wrap;html=1;" vertex="1" parent="BwLDqqsVIszzPK-v5Zr2-2">
          <mxGeometry x="70" y="390" width="120" height="80" as="geometry" />
        </mxCell>
        <mxCell id="BwLDqqsVIszzPK-v5Zr2-22" value="Редактировать информацию о сеансах" style="ellipse;whiteSpace=wrap;html=1;" vertex="1" parent="BwLDqqsVIszzPK-v5Zr2-2">
          <mxGeometry x="60" y="540" width="120" height="80" as="geometry" />
        </mxCell>
        <mxCell id="BwLDqqsVIszzPK-v5Zr2-27" value="Сохранить имя покупателя" style="ellipse;whiteSpace=wrap;html=1;" vertex="1" parent="BwLDqqsVIszzPK-v5Zr2-2">
          <mxGeometry x="340" y="255" width="120" height="80" as="geometry" />
        </mxCell>
        <mxCell id="BwLDqqsVIszzPK-v5Zr2-43" style="rounded=0;orthogonalLoop=1;jettySize=auto;html=1;exitX=0;exitY=0;exitDx=0;exitDy=0;entryX=1;entryY=0.5;entryDx=0;entryDy=0;dashed=1;endArrow=openThin;endFill=0;" edge="1" parent="BwLDqqsVIszzPK-v5Zr2-2" source="BwLDqqsVIszzPK-v5Zr2-33" target="BwLDqqsVIszzPK-v5Zr2-21">
          <mxGeometry relative="1" as="geometry" />
        </mxCell>
        <mxCell id="BwLDqqsVIszzPK-v5Zr2-51" value="&amp;lt;&amp;lt;Extend&amp;gt;&amp;gt;" style="edgeLabel;html=1;align=center;verticalAlign=middle;resizable=0;points=[];" connectable="0" vertex="1" parent="BwLDqqsVIszzPK-v5Zr2-43">
          <mxGeometry x="-0.165" y="-3" relative="1" as="geometry">
            <mxPoint as="offset" />
          </mxGeometry>
        </mxCell>
        <mxCell id="BwLDqqsVIszzPK-v5Zr2-33" value="Удалить фильм" style="ellipse;whiteSpace=wrap;html=1;" vertex="1" parent="BwLDqqsVIszzPK-v5Zr2-2">
          <mxGeometry x="370" y="440" width="120" height="80" as="geometry" />
        </mxCell>
        <mxCell id="BwLDqqsVIszzPK-v5Zr2-44" style="rounded=0;orthogonalLoop=1;jettySize=auto;html=1;exitX=0;exitY=0;exitDx=0;exitDy=0;entryX=1;entryY=1;entryDx=0;entryDy=0;dashed=1;endArrow=openThin;endFill=0;" edge="1" parent="BwLDqqsVIszzPK-v5Zr2-2" source="BwLDqqsVIszzPK-v5Zr2-34" target="BwLDqqsVIszzPK-v5Zr2-21">
          <mxGeometry relative="1" as="geometry" />
        </mxCell>
        <mxCell id="BwLDqqsVIszzPK-v5Zr2-52" value="&amp;lt;&amp;lt;Extend&amp;gt;&amp;gt;" style="edgeLabel;html=1;align=center;verticalAlign=middle;resizable=0;points=[];" connectable="0" vertex="1" parent="BwLDqqsVIszzPK-v5Zr2-44">
          <mxGeometry x="0.2185" y="-1" relative="1" as="geometry">
            <mxPoint as="offset" />
          </mxGeometry>
        </mxCell>
        <mxCell id="BwLDqqsVIszzPK-v5Zr2-34" value="Редактировать данные о фильме" style="ellipse;whiteSpace=wrap;html=1;" vertex="1" parent="BwLDqqsVIszzPK-v5Zr2-2">
          <mxGeometry x="250" y="470" width="120" height="80" as="geometry" />
        </mxCell>
        <mxCell id="BwLDqqsVIszzPK-v5Zr2-41" style="rounded=0;orthogonalLoop=1;jettySize=auto;html=1;exitX=0;exitY=0.5;exitDx=0;exitDy=0;entryX=1;entryY=0;entryDx=0;entryDy=0;dashed=1;endArrow=openThin;endFill=0;" edge="1" parent="BwLDqqsVIszzPK-v5Zr2-2" source="BwLDqqsVIszzPK-v5Zr2-35" target="BwLDqqsVIszzPK-v5Zr2-21">
          <mxGeometry relative="1" as="geometry" />
        </mxCell>
        <mxCell id="BwLDqqsVIszzPK-v5Zr2-49" value="&amp;lt;&amp;lt;Extend&amp;gt;&amp;gt;" style="edgeLabel;html=1;align=center;verticalAlign=middle;resizable=0;points=[];" connectable="0" vertex="1" parent="BwLDqqsVIszzPK-v5Zr2-41">
          <mxGeometry x="-0.1106" y="-2" relative="1" as="geometry">
            <mxPoint as="offset" />
          </mxGeometry>
        </mxCell>
        <mxCell id="BwLDqqsVIszzPK-v5Zr2-35" value="Добавить фильм" style="ellipse;whiteSpace=wrap;html=1;" vertex="1" parent="BwLDqqsVIszzPK-v5Zr2-2">
          <mxGeometry x="190" y="280" width="120" height="80" as="geometry" />
        </mxCell>
        <mxCell id="BwLDqqsVIszzPK-v5Zr2-46" style="rounded=0;orthogonalLoop=1;jettySize=auto;html=1;exitX=0.5;exitY=0;exitDx=0;exitDy=0;entryX=0.5;entryY=1;entryDx=0;entryDy=0;dashed=1;endArrow=openThin;endFill=0;" edge="1" parent="BwLDqqsVIszzPK-v5Zr2-2" source="BwLDqqsVIszzPK-v5Zr2-36" target="BwLDqqsVIszzPK-v5Zr2-22">
          <mxGeometry relative="1" as="geometry" />
        </mxCell>
        <mxCell id="BwLDqqsVIszzPK-v5Zr2-56" value="&amp;lt;&amp;lt;Extend&amp;gt;&amp;gt;" style="edgeLabel;html=1;align=center;verticalAlign=middle;resizable=0;points=[];" connectable="0" vertex="1" parent="BwLDqqsVIszzPK-v5Zr2-46">
          <mxGeometry x="0.0031" y="1" relative="1" as="geometry">
            <mxPoint as="offset" />
          </mxGeometry>
        </mxCell>
        <mxCell id="BwLDqqsVIszzPK-v5Zr2-36" value="Просмотреть данные о сеансе" style="ellipse;whiteSpace=wrap;html=1;" vertex="1" parent="BwLDqqsVIszzPK-v5Zr2-2">
          <mxGeometry x="50" y="670" width="120" height="80" as="geometry" />
        </mxCell>
        <mxCell id="BwLDqqsVIszzPK-v5Zr2-47" style="rounded=0;orthogonalLoop=1;jettySize=auto;html=1;exitX=0.5;exitY=0;exitDx=0;exitDy=0;entryX=1;entryY=1;entryDx=0;entryDy=0;dashed=1;endArrow=openThin;endFill=0;" edge="1" parent="BwLDqqsVIszzPK-v5Zr2-2" source="BwLDqqsVIszzPK-v5Zr2-37" target="BwLDqqsVIszzPK-v5Zr2-22">
          <mxGeometry relative="1" as="geometry" />
        </mxCell>
        <mxCell id="BwLDqqsVIszzPK-v5Zr2-55" value="&amp;lt;&amp;lt;Extend&amp;gt;&amp;gt;" style="edgeLabel;html=1;align=center;verticalAlign=middle;resizable=0;points=[];" connectable="0" vertex="1" parent="BwLDqqsVIszzPK-v5Zr2-47">
          <mxGeometry x="0.0641" y="-2" relative="1" as="geometry">
            <mxPoint as="offset" />
          </mxGeometry>
        </mxCell>
        <mxCell id="BwLDqqsVIszzPK-v5Zr2-37" value="Удалить сеанс" style="ellipse;whiteSpace=wrap;html=1;" vertex="1" parent="BwLDqqsVIszzPK-v5Zr2-2">
          <mxGeometry x="200" y="700" width="120" height="80" as="geometry" />
        </mxCell>
        <mxCell id="BwLDqqsVIszzPK-v5Zr2-45" style="rounded=0;orthogonalLoop=1;jettySize=auto;html=1;exitX=0;exitY=0;exitDx=0;exitDy=0;entryX=1;entryY=0;entryDx=0;entryDy=0;dashed=1;endArrow=classicThin;endFill=1;" edge="1" parent="BwLDqqsVIszzPK-v5Zr2-2" source="BwLDqqsVIszzPK-v5Zr2-38" target="BwLDqqsVIszzPK-v5Zr2-22">
          <mxGeometry relative="1" as="geometry" />
        </mxCell>
        <mxCell id="BwLDqqsVIszzPK-v5Zr2-53" value="&amp;lt;&amp;lt;Extend&amp;gt;&amp;gt;" style="edgeLabel;html=1;align=center;verticalAlign=middle;resizable=0;points=[];" connectable="0" vertex="1" parent="BwLDqqsVIszzPK-v5Zr2-45">
          <mxGeometry x="0.2374" y="-2" relative="1" as="geometry">
            <mxPoint as="offset" />
          </mxGeometry>
        </mxCell>
        <mxCell id="BwLDqqsVIszzPK-v5Zr2-38" value="Добавить сеанс" style="ellipse;whiteSpace=wrap;html=1;" vertex="1" parent="BwLDqqsVIszzPK-v5Zr2-2">
          <mxGeometry x="330" y="570" width="120" height="80" as="geometry" />
        </mxCell>
        <mxCell id="BwLDqqsVIszzPK-v5Zr2-42" style="rounded=0;orthogonalLoop=1;jettySize=auto;html=1;exitX=0;exitY=0.5;exitDx=0;exitDy=0;entryX=1;entryY=0.5;entryDx=0;entryDy=0;dashed=1;endArrow=openThin;endFill=0;" edge="1" parent="BwLDqqsVIszzPK-v5Zr2-2" source="BwLDqqsVIszzPK-v5Zr2-39" target="BwLDqqsVIszzPK-v5Zr2-21">
          <mxGeometry relative="1" as="geometry" />
        </mxCell>
        <mxCell id="BwLDqqsVIszzPK-v5Zr2-50" value="&amp;lt;&amp;lt;Extend&amp;gt;&amp;gt;" style="edgeLabel;html=1;align=center;verticalAlign=middle;resizable=0;points=[];" connectable="0" vertex="1" parent="BwLDqqsVIszzPK-v5Zr2-42">
          <mxGeometry x="-0.3256" relative="1" as="geometry">
            <mxPoint as="offset" />
          </mxGeometry>
        </mxCell>
        <mxCell id="BwLDqqsVIszzPK-v5Zr2-39" value="Просмотреть данные о фильме" style="ellipse;whiteSpace=wrap;html=1;" vertex="1" parent="BwLDqqsVIszzPK-v5Zr2-2">
          <mxGeometry x="364" y="350" width="120" height="80" as="geometry" />
        </mxCell>
        <mxCell id="BwLDqqsVIszzPK-v5Zr2-48" style="rounded=0;orthogonalLoop=1;jettySize=auto;html=1;exitX=0;exitY=0;exitDx=0;exitDy=0;entryX=1;entryY=0.5;entryDx=0;entryDy=0;dashed=1;endArrow=openThin;endFill=0;" edge="1" parent="BwLDqqsVIszzPK-v5Zr2-2" source="BwLDqqsVIszzPK-v5Zr2-40" target="BwLDqqsVIszzPK-v5Zr2-22">
          <mxGeometry relative="1" as="geometry" />
        </mxCell>
        <mxCell id="BwLDqqsVIszzPK-v5Zr2-54" value="&amp;lt;&amp;lt;Extend&amp;gt;&amp;gt;" style="edgeLabel;html=1;align=center;verticalAlign=middle;resizable=0;points=[];" connectable="0" vertex="1" parent="BwLDqqsVIszzPK-v5Zr2-48">
          <mxGeometry x="0.0599" y="2" relative="1" as="geometry">
            <mxPoint x="1" as="offset" />
          </mxGeometry>
        </mxCell>
        <mxCell id="BwLDqqsVIszzPK-v5Zr2-40" value="Редактировать данные о сеансе" style="ellipse;whiteSpace=wrap;html=1;" vertex="1" parent="BwLDqqsVIszzPK-v5Zr2-2">
          <mxGeometry x="350" y="680" width="120" height="80" as="geometry" />
        </mxCell>
        <mxCell id="BwLDqqsVIszzPK-v5Zr2-7" style="rounded=0;orthogonalLoop=1;jettySize=auto;html=1;exitX=0.5;exitY=0.5;exitDx=0;exitDy=0;exitPerimeter=0;entryX=0;entryY=0.5;entryDx=0;entryDy=0;endArrow=none;endFill=0;" edge="1" parent="1" source="BwLDqqsVIszzPK-v5Zr2-3" target="BwLDqqsVIszzPK-v5Zr2-6">
          <mxGeometry relative="1" as="geometry" />
        </mxCell>
        <mxCell id="BwLDqqsVIszzPK-v5Zr2-23" style="rounded=0;orthogonalLoop=1;jettySize=auto;html=1;exitX=1;exitY=1;exitDx=0;exitDy=0;exitPerimeter=0;entryX=0;entryY=0.5;entryDx=0;entryDy=0;endArrow=none;endFill=0;" edge="1" parent="1" source="BwLDqqsVIszzPK-v5Zr2-3" target="BwLDqqsVIszzPK-v5Zr2-21">
          <mxGeometry relative="1" as="geometry" />
        </mxCell>
        <mxCell id="BwLDqqsVIszzPK-v5Zr2-24" style="rounded=0;orthogonalLoop=1;jettySize=auto;html=1;exitX=0.5;exitY=0.5;exitDx=0;exitDy=0;exitPerimeter=0;entryX=0;entryY=0.5;entryDx=0;entryDy=0;endArrow=none;endFill=0;" edge="1" parent="1" source="BwLDqqsVIszzPK-v5Zr2-3" target="BwLDqqsVIszzPK-v5Zr2-20">
          <mxGeometry relative="1" as="geometry" />
        </mxCell>
        <mxCell id="BwLDqqsVIszzPK-v5Zr2-25" style="rounded=0;orthogonalLoop=1;jettySize=auto;html=1;exitX=0;exitY=1;exitDx=0;exitDy=0;exitPerimeter=0;entryX=0;entryY=0.5;entryDx=0;entryDy=0;endArrow=none;endFill=0;" edge="1" parent="1" source="BwLDqqsVIszzPK-v5Zr2-3" target="BwLDqqsVIszzPK-v5Zr2-22">
          <mxGeometry relative="1" as="geometry" />
        </mxCell>
        <mxCell id="BwLDqqsVIszzPK-v5Zr2-3" value="Работник кинотеатра" style="shape=umlActor;verticalLabelPosition=bottom;verticalAlign=top;html=1;" vertex="1" parent="1">
          <mxGeometry x="-180" y="490" width="30" height="60" as="geometry" />
        </mxCell>
      </root>
    </mxGraphModel>
  </diagram>
</mxfile>
